<svg id="visual" viewBox="0 0 3840 2160" width="3840" height="2160" xmlns="http://www.w3.org/2000/svg" xmlns:xlink="http://www.w3.org/1999/xlink" version="1.1"><rect x="0" y="0" width="3840" height="2160" fill="#A8A89E"></rect><path d="M0 410L91.5 460.3C183 510.7 366 611.3 548.8 605.2C731.7 599 914.3 486 1097.2 419.5C1280 353 1463 333 1645.8 380.2C1828.7 427.3 2011.3 541.7 2194.2 612C2377 682.3 2560 708.7 2742.8 671.8C2925.7 635 3108.3 535 3291.2 523C3474 511 3657 587 3748.5 625L3840 663L3840 0L3748.5 0C3657 0 3474 0 3291.2 0C3108.3 0 2925.7 0 2742.8 0C2560 0 2377 0 2194.2 0C2011.3 0 1828.7 0 1645.8 0C1463 0 1280 0 1097.2 0C914.3 0 731.7 0 548.8 0C366 0 183 0 91.5 0L0 0Z" fill="#001122" stroke-linecap="round" stroke-linejoin="miter"></path></svg>